# xmcd
#
# Track frame offsets:
# 150
# 18206
# 46277
# 66258
# 87534
# 111955
# 121802
# 140583
# 159467
# 186267
# 206937
#
# Disc length: 3086 seconds
#
#
# Revision: 0
# Processed by: cddbd v1.5.1PL0 Copyright (c) Steve Scherf et al.
# Submitted via: FreeRIP 2.941 
#
DISCID=9e0c0c0b
DTITLE=Nego Blue - Farinha de Mandioca
DYEAR=1900
DGENRE=Reggae
TTITLE0=01-O sol nascendo é tão belo
TTITLE1=02-Luz no horizonte
TTITLE2=03-Anjo negro
TTITLE3=04-O cigano
TTITLE4=05-Farinha de Mandioca
TTITLE5=06-Qual é a palavra
TTITLE6=07-Preto meio branco
TTITLE7=08-Ilha do Mel
TTITLE8=09-Lua, nua, no mar
TTITLE9=10-Louco pra viver
TTITLE10=11-Roupas chics
EXTD=
EXTT0=
EXTT1=
EXTT2=
EXTT3=
EXTT4=
EXTT5=
EXTT6=
EXTT7=
EXTT8=
EXTT9=
EXTT10=
PLAYORDER=
